# Hierarchical Translation and Rotation (.htr) file
# Generated by EVaRT
[Header]
FileType htr
DataType HTRS
FileVersion 1
NumSegments 23
NumFrames 5
DataFrameRate 120
EulerRotationOrder ZYX
CalibrationUnits mm
RotationUnits Degrees
GlobalAxisofGravity Y
BoneLengthAxis Y
ScaleFactor 1
[SegmentNames&Hierarchy]
#CHILD            PARENT
DaveRoot          GLOBAL
Spine1            DaveRoot
Spine2            Spine1
Spine3            Spine2
Spine4            Spine3
Neck              Spine4
Head              Neck
LClavicle         Spine4
LUpperArm         LClavicle
LLowerArm         LUpperArm
LHand             LLowerArm
RClavicle         Spine4
RUpperArm         RClavicle
RLowerArm         RUpperArm
RHand             RLowerArm
RUpperLeg         DaveRoot
RLowerLeg         RUpperLeg
RFoot             RLowerLeg
RToes             RFoot
LUpperLeg         DaveRoot
LLowerLeg         LUpperLeg
LFoot             LLowerLeg
LToes             LFoot
[BasePosition]
#SegmentName      Tx   Ty   Tz   Rx   Ry   Rz   BoneLength
DaveRoot          1078.678277	988.889323	-667.355416	21.100172	-35.850280	-13.563871	100.000000
Spine1            0.000000	100.000000	0.000000	-14.881963	2.292165	3.740750	100.000000
Spine2            0.000000	100.000000	0.000000	6.530342	0.668586	4.295175	100.000000
Spine3            0.000000	100.000000	0.000000	12.838786	0.191691	4.342582	100.000000
Spine4            0.000000	100.000000	0.000000	14.062130	1.171471	5.872723	100.000000
Neck              0.000000	100.000000	0.000000	7.737895	11.498691	-3.920750	80.000000
Head              0.000000	80.000000	0.000000	-47.820279	-9.378091	-2.499782	200.000000
LClavicle         0.000000	100.000000	0.000000	7.006000	0.163524	-123.648937	200.000000
LUpperArm         0.000000	200.000000	0.000000	39.957204	52.516966	-16.160711	300.000000
LLowerArm         0.000000	300.000000	0.000000	-1.806693	2.175812	1.895763	200.000000
LHand             0.000000	200.000000	0.000000	16.195035	-1.768569	8.793625	120.000000
RClavicle         0.000000	100.000000	0.000000	3.329328	-3.962094	109.315139	200.000000
RUpperArm         0.000000	200.000000	0.000000	31.467517	-27.516660	21.198784	300.000000
RLowerArm         0.000000	300.000000	0.000000	20.023297	-3.682026	-7.348670	200.000000
RHand             0.000000	200.000000	0.000000	6.266882	13.427731	10.826414	120.000000
RUpperLeg         -115.911102	-10.000000	31.058285	22.207319	27.607647	-154.283666	530.000000
RLowerLeg         0.000000	530.000000	0.000000	-15.604109	0.479387	-2.520024	460.000000
RFoot             0.000000	460.000000	0.000000	98.099007	-9.797309	28.788465	130.000000
RToes             0.000000	130.000000	0.000000	-15.148141	0.005479	-0.002881	100.000000
LUpperLeg         115.911102	-10.000000	31.058285	41.660003	-3.682702	-163.432677	530.000000
LLowerLeg         0.000000	530.000000	0.000000	-22.778950	-3.275937	3.046484	460.000000
LFoot             0.000000	460.000000	0.000000	77.647326	-23.190969	-3.622247	130.000000
LToes             0.000000	130.000000	0.000000	14.512714	-0.000000	-0.000086	100.000000
#Beginning of Data.
[DaveRoot]
#Fr	Tx	Ty	Tz	Rx	Ry	Rz	SF
1091	-2209.138115	-612.239077	-366.123571	46.157816	19.394917	8.577444	1.000000	
1092	-2209.273676	-614.212507	-371.441582	45.740489	19.625814	8.975881	1.000000	
1093	-2209.452459	-616.146642	-376.828391	45.355002	19.915537	9.342430	1.000000	
1094	-2209.665447	-618.051784	-382.279165	44.995371	20.263039	9.667862	1.000000	
1095	-2209.903916	-619.944163	-387.793961	44.657685	20.665823	9.944902	1.000000	
[Spine1]
#Fr	Tx	Ty	Tz	Rx	Ry	Rz	SF
1091	0.000000	0.000000	0.000000	6.933294	0.221403	-5.873391	1.000000	
1092	0.000000	0.000000	0.000000	7.022433	0.238298	-5.934128	1.000000	
1093	0.000000	0.000000	0.000000	7.102244	0.244385	-5.971561	1.000000	
1094	0.000000	0.000000	0.000000	7.175414	0.242355	-5.981780	1.000000	
1095	0.000000	0.000000	0.000000	7.243965	0.236356	-5.962907	1.000000	
[Spine2]
#Fr	Tx	Ty	Tz	Rx	Ry	Rz	SF
1091	0.000000	0.000000	0.000000	6.933294	0.221403	-5.873391	1.000000	
1092	0.000000	0.000000	0.000000	7.022433	0.238298	-5.934128	1.000000	
1093	0.000000	0.000000	0.000000	7.102244	0.244385	-5.971561	1.000000	
1094	0.000000	0.000000	0.000000	7.175414	0.242355	-5.981780	1.000000	
1095	0.000000	0.000000	0.000000	7.243965	0.236356	-5.962907	1.000000	
[Spine3]
#Fr	Tx	Ty	Tz	Rx	Ry	Rz	SF
1091	0.000000	0.000000	0.000000	6.933294	0.221403	-5.873391	1.000000	
1092	0.000000	0.000000	0.000000	7.022433	0.238298	-5.934128	1.000000	
1093	0.000000	0.000000	0.000000	7.102244	0.244385	-5.971561	1.000000	
1094	0.000000	0.000000	0.000000	7.175414	0.242355	-5.981780	1.000000	
1095	0.000000	0.000000	0.000000	7.243965	0.236356	-5.962907	1.000000	
[Spine4]
#Fr	Tx	Ty	Tz	Rx	Ry	Rz	SF
1091	0.000000	0.000000	0.000000	6.933294	0.221403	-5.873391	1.000000	
1092	0.000000	0.000000	0.000000	7.022433	0.238298	-5.934128	1.000000	
1093	0.000000	0.000000	0.000000	7.102244	0.244385	-5.971561	1.000000	
1094	0.000000	0.000000	0.000000	7.175414	0.242355	-5.981780	1.000000	
1095	0.000000	0.000000	0.000000	7.243965	0.236356	-5.962907	1.000000	
[Neck]
#Fr	Tx	Ty	Tz	Rx	Ry	Rz	SF
1091	0.000000	0.000000	0.000000	-28.374554	6.208781	-9.336288	1.000000	
1092	0.000000	0.000000	0.000000	-28.229068	6.076528	-9.081719	1.000000	
1093	0.000000	0.000000	0.000000	-28.059448	5.953932	-8.871108	1.000000	
1094	0.000000	0.000000	0.000000	-27.873639	5.841447	-8.714893	1.000000	
1095	0.000000	0.000000	0.000000	-27.682423	5.734745	-8.610822	1.000000	
[Head]
#Fr	Tx	Ty	Tz	Rx	Ry	Rz	SF
1091	0.000000	0.000000	0.000000	-28.374554	6.208781	-9.336288	1.000000	
1092	0.000000	0.000000	0.000000	-28.229068	6.076528	-9.081719	1.000000	
1093	0.000000	0.000000	0.000000	-28.059448	5.953932	-8.871108	1.000000	
1094	0.000000	0.000000	0.000000	-27.873639	5.841447	-8.714893	1.000000	
1095	0.000000	0.000000	0.000000	-27.682423	5.734745	-8.610822	1.000000	
[LClavicle]
#Fr	Tx	Ty	Tz	Rx	Ry	Rz	SF
1091	0.000000	0.000000	0.000000	2.214054	-0.166744	23.632365	1.000000	
1092	0.000000	0.000000	0.000000	2.207107	-0.175129	23.862130	1.000000	
1093	0.000000	0.000000	0.000000	2.226306	-0.186072	24.102795	1.000000	
1094	0.000000	0.000000	0.000000	2.273806	-0.198900	24.324174	1.000000	
1095	0.000000	0.000000	0.000000	2.346937	-0.212833	24.506426	1.000000	
[LUpperArm]
#Fr	Tx	Ty	Tz	Rx	Ry	Rz	SF
1091	0.000000	0.000000	0.000000	18.884260	62.849059	50.576672	1.000000	
1092	0.000000	0.000000	0.000000	19.108351	62.996265	50.707028	1.000000	
1093	0.000000	0.000000	0.000000	19.264156	63.088265	50.938917	1.000000	
1094	0.000000	0.000000	0.000000	19.347856	63.130915	51.274018	1.000000	
1095	0.000000	0.000000	0.000000	19.371659	63.138373	51.729739	1.000000	
[LLowerArm]
#Fr	Tx	Ty	Tz	Rx	Ry	Rz	SF
1091	0.000000	0.000000	0.000000	-58.492757	0.000000	0.000000	1.000000	
1092	0.000000	0.000000	0.000000	-56.660755	0.000000	0.000000	1.000000	
1093	0.000000	0.000000	0.000000	-54.834395	0.000000	0.000000	1.000000	
1094	0.000000	0.000000	0.000000	-53.088922	0.000000	0.000000	1.000000	
1095	0.000000	0.000000	0.000000	-51.487899	-0.000000	0.000000	1.000000	
[LHand]
#Fr	Tx	Ty	Tz	Rx	Ry	Rz	SF
1091	0.000000	0.000000	0.000000	3.562342	-0.000000	0.000000	1.000000	
1092	0.000000	0.000000	0.000000	3.535810	0.000000	0.000000	1.000000	
1093	0.000000	0.000000	0.000000	3.487368	-0.000000	0.000000	1.000000	
1094	0.000000	0.000000	0.000000	3.450214	-0.000000	0.000000	1.000000	
1095	0.000000	0.000000	0.000000	3.450189	-0.000000	0.000000	1.000000	
[RClavicle]
#Fr	Tx	Ty	Tz	Rx	Ry	Rz	SF
1091	0.000000	0.000000	0.000000	0.336061	0.017559	-4.506843	1.000000	
1092	0.000000	0.000000	0.000000	0.444547	0.023049	-4.483806	1.000000	
1093	0.000000	0.000000	0.000000	0.584790	0.030883	-4.538797	1.000000	
1094	0.000000	0.000000	0.000000	0.733696	0.040008	-4.636922	1.000000	
1095	0.000000	0.000000	0.000000	0.860297	0.048349	-4.732286	1.000000	
[RUpperArm]
#Fr	Tx	Ty	Tz	Rx	Ry	Rz	SF
1091	0.000000	0.000000	0.000000	12.123229	25.276802	-22.864842	1.000000	
1092	0.000000	0.000000	0.000000	12.030119	24.739649	-23.512308	1.000000	
1093	0.000000	0.000000	0.000000	11.947086	24.264699	-24.142182	1.000000	
1094	0.000000	0.000000	0.000000	11.842767	23.840086	-24.804480	1.000000	
1095	0.000000	0.000000	0.000000	11.687405	23.448866	-25.545181	1.000000	
[RLowerArm]
#Fr	Tx	Ty	Tz	Rx	Ry	Rz	SF
1091	0.000000	0.000000	0.000000	27.129566	0.000000	0.000000	1.000000	
1092	0.000000	0.000000	0.000000	26.137260	0.000000	0.000000	1.000000	
1093	0.000000	0.000000	0.000000	25.125286	0.000000	0.000000	1.000000	
1094	0.000000	0.000000	0.000000	24.155174	0.000000	0.000000	1.000000	
1095	0.000000	0.000000	0.000000	23.298291	0.000000	0.000000	1.000000	
[RHand]
#Fr	Tx	Ty	Tz	Rx	Ry	Rz	SF
1091	0.000000	0.000000	0.000000	94.062094	-65.534099	-129.158717	1.000000	
1092	0.000000	0.000000	0.000000	94.168338	-65.945033	-129.534248	1.000000	
1093	0.000000	0.000000	0.000000	93.932920	-66.324393	-129.644146	1.000000	
1094	0.000000	0.000000	0.000000	93.467441	-66.690716	-129.562321	1.000000	
1095	0.000000	0.000000	0.000000	92.904617	-67.062579	-129.383790	1.000000	
[RUpperLeg]
#Fr	Tx	Ty	Tz	Rx	Ry	Rz	SF
1091	0.000000	0.000000	0.000000	101.416566	-31.383000	-42.614310	1.000000	
1092	0.000000	0.000000	0.000000	101.090708	-31.248235	-42.250440	1.000000	
1093	0.000000	0.000000	0.000000	100.795054	-31.096101	-41.858261	1.000000	
1094	0.000000	0.000000	0.000000	100.529936	-30.930369	-41.449846	1.000000	
1095	0.000000	0.000000	0.000000	100.293661	-30.752658	-41.032319	1.000000	
[RLowerLeg]
#Fr	Tx	Ty	Tz	Rx	Ry	Rz	SF
1091	0.000000	0.000000	0.000000	-133.363929	-0.000000	0.000000	1.000000	
1092	0.000000	0.000000	0.000000	-133.694384	-0.000000	0.000000	1.000000	
1093	0.000000	0.000000	0.000000	-134.014496	-0.000000	0.000000	1.000000	
1094	0.000000	0.000000	0.000000	-134.325484	-0.000000	0.000000	1.000000	
1095	0.000000	0.000000	0.000000	-134.629842	-0.000000	0.000000	1.000000	
[RFoot]
#Fr	Tx	Ty	Tz	Rx	Ry	Rz	SF
1091	0.000000	0.000000	0.000000	44.214805	19.497817	-16.109386	1.000000	
1092	0.000000	0.000000	0.000000	44.753323	19.509724	-16.525071	1.000000	
1093	0.000000	0.000000	0.000000	45.217685	19.403797	-16.985711	1.000000	
1094	0.000000	0.000000	0.000000	45.638168	19.279959	-17.418958	1.000000	
1095	0.000000	0.000000	0.000000	46.039910	19.244070	-17.741910	1.000000	
[RToes]
#Fr	Tx	Ty	Tz	Rx	Ry	Rz	SF
1091	0.000000	0.000000	0.000000	-18.375615	0.000000	0.000000	1.000000	
1092	0.000000	0.000000	0.000000	-18.144105	-0.000000	-0.000000	1.000000	
1093	0.000000	0.000000	0.000000	-17.784989	0.000000	0.000000	1.000000	
1094	0.000000	0.000000	0.000000	-17.397222	0.000000	0.000000	1.000000	
1095	0.000000	0.000000	0.000000	-17.062326	0.000000	0.000000	1.000000	
[LUpperLeg]
#Fr	Tx	Ty	Tz	Rx	Ry	Rz	SF
1091	0.000000	0.000000	0.000000	48.583781	-8.675551	10.709746	1.000000	
1092	0.000000	0.000000	0.000000	48.574724	-8.105185	10.857266	1.000000	
1093	0.000000	0.000000	0.000000	48.668567	-7.538719	11.039515	1.000000	
1094	0.000000	0.000000	0.000000	48.860500	-6.992449	11.254876	1.000000	
1095	0.000000	0.000000	0.000000	49.140769	-6.480169	11.499857	1.000000	
[LLowerLeg]
#Fr	Tx	Ty	Tz	Rx	Ry	Rz	SF
1091	0.000000	0.000000	0.000000	-124.707510	0.000000	0.000000	1.000000	
1092	0.000000	0.000000	0.000000	-124.807574	0.000000	0.000000	1.000000	
1093	0.000000	0.000000	0.000000	-124.901696	0.000000	0.000000	1.000000	
1094	0.000000	0.000000	0.000000	-124.993717	0.000000	0.000000	1.000000	
1095	0.000000	0.000000	0.000000	-125.088888	0.000000	0.000000	1.000000	
[LFoot]
#Fr	Tx	Ty	Tz	Rx	Ry	Rz	SF
1091	0.000000	0.000000	0.000000	30.847009	21.620777	-14.207553	1.000000	
1092	0.000000	0.000000	0.000000	30.934233	21.805729	-14.715387	1.000000	
1093	0.000000	0.000000	0.000000	31.000975	22.041435	-15.181178	1.000000	
1094	0.000000	0.000000	0.000000	31.056034	22.270563	-15.593181	1.000000	
1095	0.000000	0.000000	0.000000	31.114874	22.420864	-15.954754	1.000000	
[LToes]
#Fr	Tx	Ty	Tz	Rx	Ry	Rz	SF
1091	0.000000	0.000000	0.000000	41.948437	0.000000	0.000000	1.000000	
1092	0.000000	0.000000	0.000000	42.333963	0.000000	0.000000	1.000000	
1093	0.000000	0.000000	0.000000	42.743164	0.000000	0.000000	1.000000	
1094	0.000000	0.000000	0.000000	43.154723	0.000000	0.000000	1.000000	
1095	0.000000	0.000000	0.000000	43.521574	0.000000	0.000000	1.000000	
